<?xml version="1.0" encoding="UTF-8"?>
<svg width="24px" height="24px" viewBox="0 0 24 24" version="1.1" xmlns="http://www.w3.org/2000/svg" xmlns:xlink="http://www.w3.org/1999/xlink">
    <title>Icon/Maximize</title>
    <g id="Icon/Maximize" stroke="none" stroke-width="1" fill="none" fill-rule="evenodd">
        <g id="noun-expand-3235902" fill="#B8B8CB" fill-rule="nonzero">
            <path d="M17.6827729,2.34242234 C18.2629795,2.34242234 18.8431861,2.34242234 19.4259945,2.34242234 C20.34704,2.34242234 21.2680855,2.34242234 22.1891309,2.34242234 C22.4024805,2.34242234 22.61583,2.34242234 22.8291795,2.34242234 C22.438906,1.95214884 22.0486325,1.56187534 21.658359,1.17160183 C21.658359,1.75180844 21.658359,2.33201505 21.658359,2.91482348 C21.658359,3.83586895 21.658359,4.75691442 21.658359,5.67795989 C21.658359,5.89130941 21.658359,6.10465892 21.658359,6.31800844 C21.658359,6.61721813 21.7884501,6.93464058 22.0017997,7.14538827 C22.2047419,7.34833049 22.5377753,7.50183807 22.8291795,7.48882895 C23.130991,7.47581984 23.4458116,7.37695055 23.6565593,7.14538827 C23.867307,6.91642781 24,6.63543089 24,6.31800844 C24,5.73780183 24,5.15759522 24,4.57478679 C24,3.65374132 24,2.73269585 24,1.81165038 C24,1.59830086 24,1.38495135 24,1.17160183 C24,0.539358756 23.4640244,0.000781319878 22.8291795,0.000781319878 C22.2489729,0.000781319878 21.6687663,0.000781319878 21.0859578,0.000781319878 C20.1649124,0.000781319878 19.2438669,0.000781319878 18.3228214,0.000781319878 C18.1094719,0.000781319878 17.8961224,0.000781319878 17.6827729,0.000781319878 C17.3835632,0.000781319878 17.0661407,0.130872488 16.8553931,0.344222004 C16.6524508,0.547164226 16.4989433,0.880197616 16.5119524,1.17160183 C16.5249615,1.47341334 16.6238308,1.78823397 16.8553931,1.99898166 C17.0843535,2.20972935 17.3653504,2.34242234 17.6827729,2.34242234 L17.6827729,2.34242234 Z" id="Path"></path>
            <path d="M17.6827729,24 C18.2629795,24 18.8431861,24 19.4259945,24 C20.34704,24 21.2680855,24 22.1891309,24 C22.4024805,24 22.61583,24 22.8291795,24 C23.4614226,24 24,23.4640244 24,22.8291795 C24,22.2489729 24,21.6687663 24,21.0859578 C24,20.1649124 24,19.2438669 24,18.3228214 C24,18.1094719 24,17.8961224 24,17.6827729 C24,17.3835632 23.8699088,17.0661407 23.6565593,16.8553931 C23.4536171,16.6524508 23.1205837,16.4989433 22.8291795,16.5119524 C22.527368,16.5249615 22.2125474,16.6238308 22.0017997,16.8553931 C21.791052,17.0843535 21.658359,17.3653504 21.658359,17.6827729 C21.658359,18.2629795 21.658359,18.8431861 21.658359,19.4259945 C21.658359,20.34704 21.658359,21.2680855 21.658359,22.1891309 C21.658359,22.4024805 21.658359,22.61583 21.658359,22.8291795 C22.0486325,22.438906 22.438906,22.0486325 22.8291795,21.658359 C22.2489729,21.658359 21.6687663,21.658359 21.0859578,21.658359 C20.1649124,21.658359 19.2438669,21.658359 18.3228214,21.658359 C18.1094719,21.658359 17.8961224,21.658359 17.6827729,21.658359 C17.3835632,21.658359 17.0661407,21.7884501 16.8553931,22.0017997 C16.6524508,22.2047419 16.4989433,22.5377753 16.5119524,22.8291795 C16.5249615,23.130991 16.6238308,23.4458116 16.8553931,23.6565593 C17.0843535,23.867307 17.3653504,24 17.6827729,24 L17.6827729,24 Z" id="Path"></path>
            <path d="M6.31800844,0.000781319878 C5.73780183,0.000781319878 5.15759522,0.000781319878 4.57478679,0.000781319878 C3.65374132,0.000781319878 2.73269585,0.000781319878 1.81165038,0.000781319878 C1.59830086,0.000781319878 1.38495135,0.000781319878 1.17160183,0.000781319878 C0.539358756,0.000781319878 0.000781319878,0.536756932 0.000781319878,1.17160183 C0.000781319878,1.75180844 0.000781319878,2.33201505 0.000781319878,2.91482348 C0.000781319878,3.83586895 0.000781319878,4.75691442 0.000781319878,5.67795989 C0.000781319878,5.89130941 0.000781319878,6.10465892 0.000781319878,6.31800844 C0.000781319878,6.61721813 0.130872488,6.93464058 0.344222004,7.14538827 C0.547164226,7.34833049 0.880197616,7.50183807 1.17160183,7.48882895 C1.47341334,7.47581984 1.78823397,7.37695055 1.99898166,7.14538827 C2.20972935,6.91642781 2.34242234,6.63543089 2.34242234,6.31800844 C2.34242234,5.73780183 2.34242234,5.15759522 2.34242234,4.57478679 C2.34242234,3.65374132 2.34242234,2.73269585 2.34242234,1.81165038 C2.34242234,1.59830086 2.34242234,1.38495135 2.34242234,1.17160183 C1.95214884,1.56187534 1.56187534,1.95214884 1.17160183,2.34242234 C1.75180844,2.34242234 2.33201505,2.34242234 2.91482348,2.34242234 C3.83586895,2.34242234 4.75691442,2.34242234 5.67795989,2.34242234 C5.89130941,2.34242234 6.10465892,2.34242234 6.31800844,2.34242234 C6.61721813,2.34242234 6.93464058,2.21233118 7.14538827,1.99898166 C7.34833049,1.79603944 7.50183807,1.46300605 7.48882895,1.17160183 C7.47581984,0.869790322 7.37695055,0.554969696 7.14538827,0.344222004 C6.91642781,0.133474311 6.63543089,0.000781319878 6.31800844,0.000781319878 L6.31800844,0.000781319878 Z" id="Path"></path>
            <path d="M6.31800844,21.658359 C5.73780183,21.658359 5.15759522,21.658359 4.57478679,21.658359 C3.65374132,21.658359 2.73269585,21.658359 1.81165038,21.658359 C1.59830086,21.658359 1.38495135,21.658359 1.17160183,21.658359 C1.56187534,22.0486325 1.95214884,22.438906 2.34242234,22.8291795 C2.34242234,22.2489729 2.34242234,21.6687663 2.34242234,21.0859578 C2.34242234,20.1649124 2.34242234,19.2438669 2.34242234,18.3228214 C2.34242234,18.1094719 2.34242234,17.8961224 2.34242234,17.6827729 C2.34242234,17.3835632 2.21233118,17.0661407 1.99898166,16.8553931 C1.79603944,16.6524508 1.46300605,16.4989433 1.17160183,16.5119524 C0.869790322,16.5249615 0.554969696,16.6238308 0.344222004,16.8553931 C0.133474311,17.0843535 0.000781319878,17.3653504 0.000781319878,17.6827729 C0.000781319878,18.2629795 0.000781319878,18.8431861 0.000781319878,19.4259945 C0.000781319878,20.34704 0.000781319878,21.2680855 0.000781319878,22.1891309 C0.000781319878,22.4024805 0.000781319878,22.61583 0.000781319878,22.8291795 C0.000781319878,23.4614226 0.536756932,24 1.17160183,24 C1.75180844,24 2.33201505,24 2.91482348,24 C3.83586895,24 4.75691442,24 5.67795989,24 C5.89130941,24 6.10465892,24 6.31800844,24 C6.61721813,24 6.93464058,23.8699088 7.14538827,23.6565593 C7.34833049,23.4536171 7.50183807,23.1205837 7.48882895,22.8291795 C7.47581984,22.527368 7.37695055,22.2125474 7.14538827,22.0017997 C6.91642781,21.791052 6.63543089,21.658359 6.31800844,21.658359 L6.31800844,21.658359 Z" id="Path"></path>
            <path d="M0.344222004,1.99898166 C0.986872374,2.64163203 1.63212457,3.28688422 2.27477494,3.92953459 C3.29989334,4.954653 4.32501175,5.9797714 5.35013015,7.00488981 C5.58429425,7.23905391 5.81845835,7.47321801 6.05002063,7.70478029 C6.26337015,7.91812981 6.57819078,8.04822097 6.87740046,8.04822097 C7.16360103,8.04822097 7.50704172,7.92073163 7.70478029,7.70478029 C7.91032434,7.48102348 8.06123009,7.18961927 8.04822097,6.87740046 C8.03521186,6.56778348 7.9285371,6.27377744 7.70478029,6.05002063 C7.06212992,5.40737026 6.41687773,4.76211807 5.77422736,4.1194677 C4.74910895,3.0943493 3.72399055,2.06923089 2.69887215,1.04411249 C2.46470804,0.809948385 2.23054394,0.575784283 1.99898166,0.344222004 C1.78563215,0.130872488 1.47081152,0.000781319878 1.17160183,0.000781319878 C0.885401263,0.000781319878 0.541960579,0.128270665 0.344222004,0.344222004 C0.138677958,0.567978813 -0.0122277969,0.859383029 0.000781319878,1.17160183 C0.0137904367,1.48121881 0.120465194,1.77522485 0.344222004,1.99898166 L0.344222004,1.99898166 Z" id="Path"></path>
            <path d="M16.2933992,17.9507607 C16.9360496,18.5934111 17.5813018,19.2386632 18.2239521,19.8813136 C19.2490705,20.906432 20.2741889,21.9315504 21.2993074,22.9566688 C21.5334715,23.1908329 21.7676356,23.424997 21.9991978,23.6565593 C22.2125474,23.8699088 22.527368,24 22.8265777,24 C23.1127782,24 23.4562189,23.8725107 23.6539575,23.6565593 C23.8595015,23.4328025 24.0104073,23.1413983 23.9973982,22.8291795 C23.9843891,22.5195625 23.8777143,22.2255565 23.6539575,22.0017997 C23.0113071,21.3591493 22.3660549,20.7138971 21.7234046,20.0712467 C20.6982862,19.0461283 19.6731678,18.0210099 18.6480493,16.9958915 C18.4138852,16.7617274 18.1797211,16.5275633 17.9481589,16.296001 C17.7348093,16.0826515 17.4199887,15.9525603 17.120779,15.9525603 C16.8345785,15.9525603 16.4911378,16.0800497 16.2933992,16.296001 C16.0878552,16.5197578 15.9369494,16.8111621 15.9499585,17.1233809 C15.9655695,17.4329978 16.0696424,17.7244021 16.2933992,17.9507607 L16.2933992,17.9507607 Z" id="Path"></path>
            <path d="M22.0017997,0.344222004 C21.3591493,0.986872374 20.7138971,1.63212457 20.0712467,2.27477494 C19.0461283,3.29989334 18.0210099,4.32501175 16.9958915,5.35013015 C16.7617274,5.58429425 16.5275633,5.81845835 16.296001,6.05002063 C16.0826515,6.26337015 15.9525603,6.57819078 15.9525603,6.87740046 C15.9525603,7.16360103 16.0800497,7.50704172 16.296001,7.70478029 C16.5197578,7.91032434 16.8111621,8.06123009 17.1233809,8.04822097 C17.4329978,8.03521186 17.7270039,7.9285371 17.9507607,7.70478029 C18.5934111,7.06212992 19.2386632,6.41687773 19.8813136,5.77422736 C20.906432,4.74910895 21.9315504,3.72399055 22.9566688,2.69887215 C23.1908329,2.46470804 23.424997,2.23054394 23.6565593,1.99898166 C23.8699088,1.78563215 24,1.47081152 24,1.17160183 C24,0.885401263 23.8725107,0.541960579 23.6565593,0.344222004 C23.4328025,0.138677958 23.1413983,-0.0122277969 22.8291795,0.000781319878 C22.5195625,0.0137904367 22.2255565,0.120465194 22.0017997,0.344222004 L22.0017997,0.344222004 Z" id="Path"></path>
            <path d="M6.05002063,16.2933992 C5.40737026,16.9360496 4.76211807,17.5813018 4.1194677,18.2239521 C3.0943493,19.2490705 2.06923089,20.2741889 1.04411249,21.2993074 C0.809948385,21.5334715 0.575784283,21.7676356 0.344222004,21.9991978 C0.130872488,22.2125474 0.000781319878,22.527368 0.000781319878,22.8265777 C0.000781319878,23.1127782 0.128270665,23.4562189 0.344222004,23.6539575 C0.567978813,23.8595015 0.859383029,24.0104073 1.17160183,23.9973982 C1.48121881,23.9843891 1.77522485,23.8777143 1.99898166,23.6539575 C2.64163203,23.0113071 3.28688422,22.3660549 3.92953459,21.7234046 C4.954653,20.6982862 5.9797714,19.6731678 7.00488981,18.6480493 C7.23905391,18.4138852 7.47321801,18.1797211 7.70478029,17.9481589 C7.91812981,17.7348093 8.04822097,17.4199887 8.04822097,17.120779 C8.04822097,16.8345785 7.92073163,16.4911378 7.70478029,16.2933992 C7.48102348,16.0878552 7.18961927,15.9369494 6.87740046,15.9499585 C6.56778348,15.9655695 6.27637927,16.0696424 6.05002063,16.2933992 L6.05002063,16.2933992 Z" id="Path"></path>
        </g>
    </g>
</svg>