<?xml version="1.0" encoding="UTF-8"?>
<svg width="24px" height="24px" viewBox="0 0 24 24" version="1.1" xmlns="http://www.w3.org/2000/svg" xmlns:xlink="http://www.w3.org/1999/xlink">
    <title>noun-minimize-3235898</title>
    <g id="KPI-Dashboard" stroke="none" stroke-width="1" fill="none" fill-rule="evenodd">
        <g id="Icon/Minimize" fill="#B8B8CB" fill-rule="nonzero">
            <g id="noun-minimize-3235898">
                <path d="M22.2690061,5.70840045 C21.6887995,5.70840045 21.1085929,5.70840045 20.5257845,5.70840045 C19.604739,5.70840045 18.6836936,5.70840045 17.7626481,5.70840045 C17.5492986,5.70840045 17.3359491,5.70840045 17.1225995,5.70840045 C17.512873,6.09867396 17.9031465,6.48894746 18.29342,6.87922097 C18.29342,6.29901436 18.29342,5.71880775 18.29342,5.13599931 C18.29342,4.21495384 18.29342,3.29390837 18.29342,2.37286291 C18.29342,2.15951339 18.29342,1.94616387 18.29342,1.73281436 C18.29342,1.43360467 18.1633289,1.11618222 17.9499794,0.90543453 C17.7470371,0.702492307 17.4140038,0.548984729 17.1225995,0.561993846 C16.820788,0.575002963 16.5059674,0.67387225 16.2952197,0.90543453 C16.084472,1.13439499 15.951779,1.41539191 15.951779,1.73281436 C15.951779,2.31302097 15.951779,2.89322758 15.951779,3.47603601 C15.951779,4.39708148 15.951779,5.31812695 15.951779,6.23917242 C15.951779,6.45252193 15.951779,6.66587145 15.951779,6.87922097 C15.951779,7.51146404 16.4877546,8.05004148 17.1225995,8.05004148 C17.7028061,8.05004148 18.2830128,8.05004148 18.8658212,8.05004148 C19.7868667,8.05004148 20.7079121,8.05004148 21.6289576,8.05004148 C21.8423071,8.05004148 22.0556566,8.05004148 22.2690061,8.05004148 C22.5682158,8.05004148 22.8856383,7.91995031 23.096386,7.70660079 C23.2993282,7.50365857 23.4528358,7.17062518 23.4398267,6.87922097 C23.4268175,6.57740946 23.3279483,6.26258883 23.096386,6.05184114 C22.8674255,5.84109345 22.5864286,5.70840045 22.2690061,5.70840045 L22.2690061,5.70840045 Z" id="Path"></path>
                <path d="M22.2690061,15.9491772 C21.6887995,15.9491772 21.1085929,15.9491772 20.5257845,15.9491772 C19.604739,15.9491772 18.6836936,15.9491772 17.7626481,15.9491772 C17.5492986,15.9491772 17.3359491,15.9491772 17.1225995,15.9491772 C16.4903565,15.9491772 15.951779,16.4851528 15.951779,17.1199977 C15.951779,17.7002043 15.951779,18.2804109 15.951779,18.8632194 C15.951779,19.7842648 15.951779,20.7053103 15.951779,21.6263558 C15.951779,21.8397053 15.951779,22.0530548 15.951779,22.2664043 C15.951779,22.565614 16.0818702,22.8830365 16.2952197,23.0937842 C16.4981619,23.2967264 16.8311953,23.450234 17.1225995,23.4372248 C17.424411,23.4242157 17.7392317,23.3253464 17.9499794,23.0937842 C18.1607271,22.8648237 18.29342,22.5838268 18.29342,22.2664043 C18.29342,21.6861977 18.29342,21.1059911 18.29342,20.5231827 C18.29342,19.6021372 18.29342,18.6810917 18.29342,17.7600463 C18.29342,17.5466967 18.29342,17.3333472 18.29342,17.1199977 C17.9031465,17.5102712 17.512873,17.9005447 17.1225995,18.2908182 C17.7028061,18.2908182 18.2830128,18.2908182 18.8658212,18.2908182 C19.7868667,18.2908182 20.7079121,18.2908182 21.6289576,18.2908182 C21.8423071,18.2908182 22.0556566,18.2908182 22.2690061,18.2908182 C22.5682158,18.2908182 22.8856383,18.1607271 23.096386,17.9473775 C23.2993282,17.7444353 23.4528358,17.4114019 23.4398267,17.1199977 C23.4268175,16.8181862 23.3279483,16.5033656 23.096386,16.2926179 C22.8674255,16.0818702 22.5864286,15.9491772 22.2690061,15.9491772 L22.2690061,15.9491772 Z" id="Path"></path>
                <path d="M1.73021253,8.05004148 C2.31041914,8.05004148 2.89062575,8.05004148 3.47343419,8.05004148 C4.39447966,8.05004148 5.31552513,8.05004148 6.2365706,8.05004148 C6.44992011,8.05004148 6.66326963,8.05004148 6.87661914,8.05004148 C7.50886222,8.05004148 8.04743965,7.51406587 8.04743965,6.87922097 C8.04743965,6.29901436 8.04743965,5.71880775 8.04743965,5.13599931 C8.04743965,4.21495384 8.04743965,3.29390837 8.04743965,2.37286291 C8.04743965,2.15951339 8.04743965,1.94616387 8.04743965,1.73281436 C8.04743965,1.43360467 7.91734849,1.11618222 7.70399897,0.90543453 C7.50105675,0.702492307 7.16802336,0.548984729 6.87661914,0.561993846 C6.57480763,0.575002963 6.25998701,0.67387225 6.04923931,0.90543453 C5.83849162,1.13439499 5.70579863,1.41539191 5.70579863,1.73281436 C5.70579863,2.31302097 5.70579863,2.89322758 5.70579863,3.47603601 C5.70579863,4.39708148 5.70579863,5.31812695 5.70579863,6.23917242 C5.70579863,6.45252193 5.70579863,6.66587145 5.70579863,6.87922097 C6.09607213,6.48894746 6.48634564,6.09867396 6.87661914,5.70840045 C6.29641253,5.70840045 5.71620592,5.70840045 5.13339749,5.70840045 C4.21235202,5.70840045 3.29130655,5.70840045 2.37026108,5.70840045 C2.15691157,5.70840045 1.94356205,5.70840045 1.73021253,5.70840045 C1.43100285,5.70840045 1.1135804,5.83849162 0.902832706,6.05184114 C0.699890484,6.25478336 0.546382906,6.58781675 0.559392023,6.87922097 C0.572401139,7.18103248 0.671270427,7.4958531 0.902832706,7.70660079 C1.13179316,7.91734849 1.41279008,8.05004148 1.73021253,8.05004148 L1.73021253,8.05004148 Z" id="Path"></path>
                <path d="M1.73021253,18.2908182 C2.31041914,18.2908182 2.89062575,18.2908182 3.47343419,18.2908182 C4.39447966,18.2908182 5.31552513,18.2908182 6.2365706,18.2908182 C6.44992011,18.2908182 6.66326963,18.2908182 6.87661914,18.2908182 C6.48634564,17.9005447 6.09607213,17.5102712 5.70579863,17.1199977 C5.70579863,17.7002043 5.70579863,18.2804109 5.70579863,18.8632194 C5.70579863,19.7842648 5.70579863,20.7053103 5.70579863,21.6263558 C5.70579863,21.8397053 5.70579863,22.0530548 5.70579863,22.2664043 C5.70579863,22.565614 5.8358898,22.8830365 6.04923931,23.0937842 C6.25218154,23.2967264 6.58521493,23.450234 6.87661914,23.4372248 C7.17843065,23.4242157 7.49325128,23.3253464 7.70399897,23.0937842 C7.91474666,22.8648237 8.04743965,22.5838268 8.04743965,22.2664043 C8.04743965,21.6861977 8.04743965,21.1059911 8.04743965,20.5231827 C8.04743965,19.6021372 8.04743965,18.6810917 8.04743965,17.7600463 C8.04743965,17.5466967 8.04743965,17.3333472 8.04743965,17.1199977 C8.04743965,16.4877546 7.51146404,15.9491772 6.87661914,15.9491772 C6.29641253,15.9491772 5.71620592,15.9491772 5.13339749,15.9491772 C4.21235202,15.9491772 3.29130655,15.9491772 2.37026108,15.9491772 C2.15691157,15.9491772 1.94356205,15.9491772 1.73021253,15.9491772 C1.43100285,15.9491772 1.1135804,16.0792684 0.902832706,16.2926179 C0.699890484,16.4955601 0.546382906,16.8285935 0.559392023,17.1199977 C0.572401139,17.4218092 0.671270427,17.7366299 0.902832706,17.9473775 C1.13179316,18.1581252 1.41279008,18.2908182 1.73021253,18.2908182 L1.73021253,18.2908182 Z" id="Path"></path>
                <path d="M7.70660079,6.04923931 C7.06395042,5.40658894 6.41869823,4.76133675 5.77604786,4.11868638 C4.75092946,3.09356798 3.72581105,2.06844957 2.70069265,1.04333117 C2.46652855,0.809167065 2.23236444,0.575002963 2.00080216,0.343440684 C1.78745265,0.130091168 1.47263202,1.47896535e-15 1.17342234,1.47896535e-15 C0.887221766,1.47896535e-15 0.543781082,0.127489345 0.346042507,0.343440684 C0.140498461,0.567197493 -0.0104072934,0.858601709 0.00260182336,1.17082051 C0.0156109402,1.48043749 0.122285698,1.77444353 0.346042507,1.99820034 C0.988692877,2.64085071 1.63394507,3.2861029 2.27659544,3.92875327 C3.30171384,4.95387168 4.32683225,5.97899008 5.35195065,7.00410849 C5.58611476,7.23827259 5.82027886,7.47243669 6.05184114,7.70399897 C6.26519065,7.91734849 6.58001128,8.04743965 6.87922097,8.04743965 C7.16542154,8.04743965 7.50886222,7.91995031 7.70660079,7.70399897 C7.91214484,7.48024216 8.0630506,7.18883795 8.05004148,6.87661914 C8.03443054,6.56700216 7.9303576,6.27559795 7.70660079,6.04923931 L7.70660079,6.04923931 Z" id="Path"></path>
                <path d="M23.655778,22.0010183 C23.0131276,21.358368 22.3678754,20.7131158 21.7252251,20.0704654 C20.7001067,19.045347 19.6749883,18.0202286 18.6498699,16.9951102 C18.4157057,16.7609461 18.1815416,16.526782 17.9499794,16.2952197 C17.7366299,16.0818702 17.4218092,15.951779 17.1225995,15.951779 C16.836399,15.951779 16.4929583,16.0792684 16.2952197,16.2952197 C16.0896757,16.5189765 15.9387699,16.8103807 15.951779,17.1225995 C15.9647881,17.4322165 16.0714629,17.7262226 16.2952197,17.9499794 C16.9378701,18.5926297 17.5831223,19.2378819 18.2257726,19.8805323 C19.250891,20.9056507 20.2760095,21.9307691 21.3011279,22.9558875 C21.535292,23.1900516 21.7694561,23.4242157 22.0010183,23.655778 C22.2143679,23.8691275 22.5291885,23.9992187 22.8283982,23.9992187 C23.1145987,23.9992187 23.4580394,23.8717293 23.655778,23.655778 C23.861322,23.4320212 24.0122278,23.140617 23.9992187,22.8283982 C23.9862096,22.5187812 23.8795348,22.2247751 23.655778,22.0010183 L23.655778,22.0010183 Z" id="Path"></path>
                <path d="M17.9499794,7.70660079 C18.5926297,7.06395042 19.2378819,6.41869823 19.8805323,5.77604786 C20.9056507,4.75092946 21.9307691,3.72581105 22.9558875,2.70069265 C23.1900516,2.46652855 23.4242157,2.23236444 23.655778,2.00080216 C23.8691275,1.78745265 23.9992187,1.47263202 23.9992187,1.17342234 C23.9992187,0.887221766 23.8717293,0.543781082 23.655778,0.346042507 C23.4320212,0.140498461 23.140617,-0.0104072934 22.8283982,0.00260182336 C22.5187812,0.0156109402 22.2247751,0.122285698 22.0010183,0.346042507 C21.358368,0.988692877 20.7131158,1.63394507 20.0704654,2.27659544 C19.045347,3.30171384 18.0202286,4.32683225 16.9951102,5.35195065 C16.7609461,5.58611476 16.526782,5.82027886 16.2952197,6.05184114 C16.0818702,6.26519065 15.951779,6.58001128 15.951779,6.87922097 C15.951779,7.16542154 16.0792684,7.50886222 16.2952197,7.70660079 C16.5189765,7.91214484 16.8103807,8.0630506 17.1225995,8.05004148 C17.4322165,8.03443054 17.7236207,7.9303576 17.9499794,7.70660079 L17.9499794,7.70660079 Z" id="Path"></path>
                <path d="M1.99820034,23.655778 C2.64085071,23.0131276 3.2861029,22.3678754 3.92875327,21.7252251 C4.95387168,20.7001067 5.97899008,19.6749883 7.00410849,18.6498699 C7.23827259,18.4157057 7.47243669,18.1815416 7.70399897,17.9499794 C7.91734849,17.7366299 8.04743965,17.4218092 8.04743965,17.1225995 C8.04743965,16.836399 7.91995031,16.4929583 7.70399897,16.2952197 C7.48024216,16.0896757 7.18883795,15.9387699 6.87661914,15.951779 C6.56700216,15.9647881 6.27299612,16.0714629 6.04923931,16.2952197 C5.40658894,16.9378701 4.76133675,17.5831223 4.11868638,18.2257726 C3.09356798,19.250891 2.06844957,20.2760095 1.04333117,21.3011279 C0.809167065,21.535292 0.575002963,21.7694561 0.343440684,22.0010183 C0.130091168,22.2143679 7.39482676e-16,22.5291885 7.39482676e-16,22.8283982 C7.39482676e-16,23.1145987 0.127489345,23.4580394 0.343440684,23.655778 C0.567197493,23.861322 0.858601709,24.0122278 1.17082051,23.9992187 C1.48043749,23.9862096 1.77444353,23.8795348 1.99820034,23.655778 L1.99820034,23.655778 Z" id="Path"></path>
            </g>
        </g>
    </g>
</svg>